<svg width="17" height="16" viewBox="0 0 17 16" fill="none" xmlns="http://www.w3.org/2000/svg">
<path fill-rule="evenodd" clip-rule="evenodd" d="M8.16683 2.66665C5.40541 2.66665 3.16683 4.90522 3.16683 7.66665C3.16683 10.4281 5.40541 12.6666 8.16683 12.6666C9.5089 12.6666 10.7275 12.1379 11.6256 11.2773C11.6463 11.2486 11.6696 11.2211 11.6955 11.1952C11.7214 11.1694 11.7488 11.1461 11.7776 11.1253C12.6381 10.2272 13.1668 9.00869 13.1668 7.66665C13.1668 4.90522 10.9283 2.66665 8.16683 2.66665ZM13.0919 11.6488C13.9726 10.5609 14.5002 9.1754 14.5002 7.66665C14.5002 4.16884 11.6646 1.33331 8.16683 1.33331C4.66903 1.33331 1.8335 4.16884 1.8335 7.66665C1.8335 11.1645 4.66903 14 8.16683 14C9.67561 14 11.0612 13.4724 12.1491 12.5916L14.0288 14.4714C14.2891 14.7317 14.7112 14.7317 14.9716 14.4714C15.2319 14.211 15.2319 13.7889 14.9716 13.5286L13.0919 11.6488Z" fill="#001F1D"/>
</svg>
